<svg width="56" height="56" viewBox="0 0 800 800" fill="none" xmlns="http://www.w3.org/2000/svg">
<circle cx="400" cy="400" r="400" fill="url(#paint0_linear)"/>
<path d="M259.467 483.333C252.927 483.333 246.534 485.288 241.096 488.951C235.658 492.614 231.42 497.82 228.917 503.911C226.414 510.001 225.759 516.704 227.035 523.17C228.311 529.636 231.46 535.575 236.085 540.237C240.709 544.899 246.601 548.073 253.016 549.36C259.43 550.646 266.079 549.986 272.121 547.463C278.163 544.94 283.327 540.667 286.961 535.186C290.594 529.704 292.533 523.259 292.533 516.667C292.523 507.829 289.036 499.356 282.837 493.107C276.638 486.858 268.233 483.343 259.467 483.333ZM259.467 533.333C256.197 533.333 253 532.356 250.281 530.525C247.562 528.693 245.443 526.09 244.192 523.045C242.94 519.999 242.613 516.648 243.251 513.415C243.889 510.182 245.464 507.212 247.776 504.882C250.088 502.551 253.034 500.963 256.241 500.32C259.448 499.677 262.773 500.007 265.794 501.269C268.815 502.53 271.397 504.666 273.214 507.407C275.03 510.148 276 513.37 276 516.667C275.995 521.085 274.251 525.322 271.152 528.446C268.052 531.571 263.85 533.328 259.467 533.333V533.333Z" fill="white"/>
<path d="M540.534 483.333C533.994 483.333 527.6 485.288 522.163 488.951C516.725 492.614 512.487 497.82 509.984 503.911C507.481 510.001 506.826 516.704 508.102 523.17C509.378 529.636 512.527 535.575 517.152 540.237C521.776 544.899 527.668 548.073 534.083 549.36C540.497 550.646 547.145 549.986 553.188 547.463C559.23 544.94 564.394 540.667 568.027 535.186C571.661 529.704 573.6 523.259 573.6 516.667C573.59 507.829 570.103 499.356 563.904 493.107C557.705 486.858 549.3 483.343 540.534 483.333V483.333ZM540.534 533.333C537.264 533.333 534.067 532.356 531.348 530.525C528.629 528.693 526.51 526.09 525.259 523.045C524.007 519.999 523.68 516.648 524.318 513.415C524.956 510.182 526.53 507.212 528.843 504.882C531.155 502.551 534.101 500.963 537.308 500.32C540.515 499.677 543.839 500.007 546.861 501.269C549.882 502.53 552.464 504.666 554.281 507.407C556.097 510.148 557.067 513.37 557.067 516.667C557.062 521.085 555.318 525.322 552.219 528.446C549.119 531.571 544.917 533.328 540.534 533.333V533.333Z" fill="white"/>
<path d="M631.467 300H606.667V208.333C606.649 192.868 600.547 178.04 589.699 167.105C578.851 156.169 564.142 150.017 548.8 150H251.2C235.858 150.017 221.149 156.169 210.301 167.105C199.453 178.04 193.351 192.868 193.333 208.333V241.667H391.733V441.667H209.867V241.667H193.333V300H168.533C164.15 300.005 159.948 301.763 156.848 304.887C153.749 308.012 152.005 312.248 152 316.667V400C152.005 404.419 153.749 408.655 156.848 411.779C159.948 414.904 164.15 416.661 168.533 416.667H193.333V558.333C193.34 563.501 194.933 568.54 197.893 572.76C200.853 576.979 205.035 580.172 209.867 581.9V633.333C209.872 637.752 211.615 641.988 214.715 645.113C217.814 648.237 222.017 649.995 226.4 650H276C280.383 649.995 284.586 648.237 287.685 645.113C290.785 641.988 292.528 637.752 292.533 633.333V583.333H573.6V630.333C573.6 631.99 572.257 633.333 570.6 633.333H527C525.343 633.333 524 631.99 524 630.333V583.333H507.467V633.333C507.472 637.752 509.215 641.988 512.315 645.113C515.414 648.237 519.617 649.995 524 650H573.6C577.983 649.995 582.186 648.237 585.285 645.113C588.385 641.988 590.128 637.752 590.133 633.333V581.9C594.965 580.172 599.147 576.979 602.107 572.76C605.068 568.54 606.66 563.501 606.667 558.333V416.667H631.467C635.85 416.661 640.052 414.904 643.152 411.779C646.251 408.655 647.995 404.419 648 400V316.667C647.995 312.248 646.251 308.012 643.152 304.887C640.052 301.763 635.85 300.005 631.467 300ZM209.867 208.333C209.879 197.286 214.238 186.696 221.987 178.884C229.735 171.073 240.241 166.679 251.2 166.667H548.8C559.759 166.679 570.265 171.073 578.014 178.884C585.762 186.696 590.121 197.286 590.133 208.333V225H209.867V208.333ZM408.267 241.667H590.133V441.667H408.267V241.667ZM171.533 400C169.876 400 168.533 398.657 168.533 397V319.667C168.533 318.01 169.876 316.667 171.533 316.667H193.333V400H171.533ZM276 630.333C276 631.99 274.657 633.333 273 633.333H229.4C227.743 633.333 226.4 631.99 226.4 630.333V583.333H276V630.333ZM581.867 566.667H218.133C215.942 566.664 213.84 565.785 212.291 564.223C210.741 562.661 209.869 560.543 209.867 558.333V458.333H590.133V558.333C590.131 560.543 589.259 562.661 587.709 564.223C586.16 565.785 584.058 566.664 581.867 566.667ZM631.467 400H606.667V316.667H628.467C630.124 316.667 631.467 318.01 631.467 319.666L631.477 400H631.467Z" fill="white"/>
<path d="M391.733 191.667C391.733 187.101 395.435 183.333 400 183.333V183.333C404.566 183.333 408.267 187.101 408.267 191.667V191.667C408.267 196.232 404.566 200 400 200V200C395.435 200 391.733 196.232 391.733 191.667V191.667Z" fill="white"/>
<path d="M424.8 191.667C424.8 187.101 428.501 183.333 433.066 183.333V183.333C437.632 183.333 441.333 187.101 441.333 191.667V191.667C441.333 196.232 437.632 200 433.066 200V200C428.501 200 424.8 196.232 424.8 191.667V191.667Z" fill="white"/>
<path d="M358.667 191.667C358.667 187.101 362.368 183.333 366.934 183.333V183.333C371.499 183.333 375.2 187.101 375.2 191.667V191.667C375.2 196.232 371.499 200 366.934 200V200C362.368 200 358.667 196.232 358.667 191.667V191.667Z" fill="white"/>
<path d="M242.933 191.667C242.933 187.101 246.634 183.333 251.2 183.333V183.333C255.765 183.333 259.466 187.101 259.466 191.667V191.667C259.466 196.232 255.765 200 251.2 200V200C246.634 200 242.933 196.232 242.933 191.667V191.667Z" fill="white"/>
<path d="M540.533 191.667C540.533 187.101 544.234 183.333 548.8 183.333V183.333C553.365 183.333 557.066 187.101 557.066 191.667V191.667C557.066 196.232 553.365 200 548.8 200V200C544.234 200 540.533 196.232 540.533 191.667V191.667Z" fill="white"/>
<defs>
<linearGradient id="paint0_linear" x1="400" y1="0" x2="400" y2="800" gradientUnits="userSpaceOnUse">
<stop stop-color="#6C8BF5"/>
<stop offset="1" stop-color="#7000FF" stop-opacity="0.81"/>
</linearGradient>
</defs>
</svg>
