<svg width="150" height="150" viewBox="0 0 800 800" fill="none" xmlns="http://www.w3.org/2000/svg">
<path d="M284.999 387.869C279.633 387.869 274.387 389.457 269.925 392.434C265.462 395.41 261.984 399.64 259.931 404.59C257.877 409.539 257.34 414.986 258.387 420.24C259.434 425.494 262.018 430.321 265.813 434.109C269.607 437.897 274.442 440.477 279.706 441.522C284.969 442.567 290.425 442.031 295.383 439.981C300.341 437.931 304.579 434.459 307.561 430.004C310.542 425.55 312.134 420.313 312.134 414.956C312.125 407.774 309.264 400.889 304.177 395.811C299.09 390.733 292.193 387.877 284.999 387.869ZM284.999 428.499C282.316 428.499 279.693 427.705 277.462 426.217C275.231 424.728 273.492 422.613 272.465 420.138C271.438 417.664 271.17 414.941 271.693 412.313C272.217 409.686 273.509 407.273 275.406 405.379C277.303 403.485 279.721 402.195 282.353 401.672C284.984 401.15 287.712 401.418 290.191 402.443C292.67 403.468 294.789 405.204 296.28 407.431C297.771 409.658 298.566 412.277 298.566 414.956C298.562 418.546 297.131 421.989 294.588 424.528C292.045 427.067 288.596 428.495 284.999 428.499Z" fill="white"/>
<path d="M515.64 387.869C510.273 387.869 505.027 389.457 500.565 392.434C496.102 395.41 492.625 399.64 490.571 404.59C488.517 409.539 487.98 414.986 489.027 420.24C490.074 425.494 492.658 430.321 496.453 434.109C500.248 437.897 505.082 440.477 510.346 441.522C515.61 442.567 521.065 442.031 526.023 439.981C530.982 437.931 535.219 434.459 538.201 430.004C541.182 425.55 542.774 420.313 542.774 414.956C542.766 407.774 539.904 400.889 534.817 395.811C529.731 390.733 522.834 387.877 515.64 387.869ZM515.64 428.499C512.956 428.499 510.333 427.705 508.102 426.217C505.871 424.728 504.132 422.613 503.105 420.138C502.078 417.664 501.81 414.941 502.333 412.313C502.857 409.686 504.149 407.273 506.046 405.379C507.944 403.485 510.361 402.195 512.993 401.672C515.625 401.15 518.352 401.418 520.832 402.443C523.311 403.468 525.429 405.204 526.92 407.431C528.411 409.658 529.207 412.277 529.207 414.956C529.202 418.546 527.772 421.989 525.228 424.528C522.685 427.067 519.237 428.495 515.64 428.499Z" fill="white"/>
<path d="M590.259 238.891H569.908V164.402C569.894 151.835 564.886 139.786 555.984 130.899C547.082 122.013 535.013 117.014 522.423 117H278.216C265.627 117.014 253.557 122.013 244.655 130.899C235.753 139.786 230.745 151.835 230.731 164.402V191.489H393.536V354.01H244.298V191.489H230.731V238.891H210.381C206.784 238.895 203.335 240.323 200.792 242.862C198.249 245.401 196.818 248.844 196.814 252.434V320.152C196.818 323.742 198.249 327.185 200.792 329.723C203.335 332.262 206.784 333.691 210.381 333.695H230.731V448.814C230.737 453.014 232.043 457.109 234.472 460.537C236.901 463.966 240.334 466.56 244.298 467.965V509.76C244.303 513.35 245.733 516.793 248.277 519.332C250.82 521.871 254.268 523.299 257.865 523.303H298.567C302.163 523.299 305.612 521.871 308.155 519.332C310.699 516.793 312.129 513.35 312.134 509.76V469.129H542.774V502.093C542.774 506.327 539.335 509.76 535.094 509.76H509.753C505.511 509.76 502.073 506.327 502.073 502.093V469.129H488.506V509.76C488.51 513.35 489.941 516.793 492.484 519.332C495.027 521.871 498.476 523.299 502.073 523.303H542.774C546.371 523.299 549.819 521.871 552.362 519.332C554.906 516.793 556.337 513.35 556.341 509.76V467.965C560.305 466.56 563.738 463.966 566.167 460.537C568.596 457.109 569.903 453.014 569.908 448.814V333.695H590.259C593.855 333.691 597.304 332.262 599.847 329.723C602.391 327.185 603.821 323.742 603.826 320.152V252.434C603.821 248.844 602.391 245.401 599.847 242.862C597.304 240.323 593.855 238.895 590.259 238.891ZM244.298 164.402C244.308 155.425 247.885 146.819 254.244 140.472C260.602 134.124 269.224 130.554 278.216 130.543H522.423C531.416 130.554 540.037 134.124 546.395 140.472C552.754 146.819 556.331 155.425 556.341 164.402V177.945H244.298V164.402ZM407.103 191.489H556.341V354.01H407.103V191.489ZM218.061 320.152C213.819 320.152 210.381 316.719 210.381 312.485V260.101C210.381 255.867 213.819 252.434 218.061 252.434H230.731V320.152H218.061ZM298.567 502.093C298.567 506.327 295.128 509.76 290.887 509.76H265.545C261.304 509.76 257.865 506.327 257.865 502.093V469.129H298.567V502.093ZM549.557 455.586H251.082C249.283 455.584 247.559 454.87 246.287 453.6C245.016 452.331 244.3 450.61 244.298 448.814V367.554H556.341V448.814C556.339 450.61 555.624 452.331 554.352 453.6C553.08 454.87 551.356 455.584 549.557 455.586ZM569.908 320.152V252.434H582.58C586.821 252.434 590.259 255.866 590.26 260.1L590.267 320.152H569.908Z" fill="white"/>
<path d="M393.536 150.859C393.536 147.119 396.573 144.087 400.32 144.087C404.066 144.087 407.103 147.119 407.103 150.859C407.103 154.599 404.066 157.63 400.32 157.63C396.573 157.63 393.536 154.599 393.536 150.859Z" fill="white"/>
<path d="M420.67 150.859C420.67 147.119 423.707 144.087 427.454 144.087C431.2 144.087 434.237 147.119 434.237 150.859C434.237 154.598 431.2 157.63 427.454 157.63C423.707 157.63 420.67 154.598 420.67 150.859Z" fill="white"/>
<path d="M366.402 150.859C366.402 147.119 369.439 144.087 373.185 144.087C376.932 144.087 379.969 147.119 379.969 150.859C379.969 154.599 376.932 157.63 373.185 157.63C369.439 157.63 366.402 154.599 366.402 150.859Z" fill="white"/>
<path d="M271.432 150.859C271.432 147.119 274.469 144.087 278.216 144.087C281.962 144.087 284.999 147.119 284.999 150.859C284.999 154.599 281.962 157.63 278.216 157.63C274.469 157.63 271.432 154.599 271.432 150.859Z" fill="white"/>
<path d="M515.64 150.859C515.64 147.119 518.677 144.087 522.423 144.087C526.17 144.087 529.207 147.119 529.207 150.859C529.207 154.598 526.17 157.63 522.423 157.63C518.677 157.63 515.64 154.598 515.64 150.859Z" fill="white"/>
<path d="M213.321 595.662C215.369 595.662 217.13 596.357 218.605 597.747C220.161 599.138 220.94 600.814 220.94 602.777C220.94 603.84 220.694 604.944 220.202 606.089L189.851 676.989C189.114 678.543 188.09 679.729 186.779 680.547C185.468 681.364 184.076 681.773 182.601 681.773C181.209 681.692 179.898 681.283 178.669 680.547C177.522 679.729 176.621 678.584 175.966 677.112L145.614 605.966C145.205 605.148 145 604.126 145 602.899C145 600.691 145.819 598.933 147.458 597.625C149.096 596.234 150.775 595.539 152.496 595.539C153.888 595.539 155.199 595.948 156.428 596.766C157.657 597.584 158.599 598.77 159.254 600.323L183.953 658.344L206.563 600.323C207.218 598.851 208.16 597.706 209.389 596.889C210.618 596.071 211.929 595.662 213.321 595.662Z" fill="white"/>
<path d="M284.228 614.921C286.357 614.921 288.119 615.616 289.511 617.006C290.904 618.396 291.6 620.195 291.6 622.403V674.291C291.6 676.417 290.904 678.216 289.511 679.688C288.119 681.078 286.357 681.773 284.228 681.773C282.098 681.773 280.336 681.078 278.944 679.688C277.633 678.298 276.937 676.54 276.855 674.413C274.807 676.785 272.022 678.829 268.499 680.547C265.058 682.182 261.413 683 257.563 683C251.91 683 246.79 681.569 242.203 678.707C237.615 675.763 233.97 671.715 231.266 666.563C228.645 661.411 227.334 655.564 227.334 649.022C227.334 642.479 228.645 636.632 231.266 631.48C233.888 626.247 237.451 622.199 241.957 619.336C246.544 616.393 251.583 614.921 257.071 614.921C261.003 614.921 264.69 615.657 268.13 617.129C271.571 618.519 274.479 620.318 276.855 622.526V622.403C276.855 620.277 277.551 618.519 278.944 617.129C280.336 615.657 282.098 614.921 284.228 614.921ZM259.406 669.507C264.731 669.507 269.072 667.585 272.431 663.741C275.79 659.816 277.469 654.91 277.469 649.022C277.469 643.134 275.79 638.227 272.431 634.302C269.072 630.376 264.731 628.414 259.406 628.414C254.163 628.414 249.862 630.376 246.503 634.302C243.145 638.227 241.465 643.134 241.465 649.022C241.465 654.91 243.104 659.816 246.381 663.741C249.739 667.585 254.081 669.507 259.406 669.507ZM260.758 611.977C259.938 611.977 259.037 611.609 258.054 610.873C257.153 610.137 256.743 609.155 256.825 607.929C256.825 607.193 257.071 606.416 257.563 605.598L264.69 593.086C265.509 591.614 266.492 590.428 267.639 589.529C268.786 588.629 270.055 588.179 271.448 588.179C273.66 588.179 275.298 588.752 276.363 589.897C277.51 591.042 278.043 592.514 277.961 594.313C277.797 596.194 277.019 597.952 275.626 599.587L266.287 609.891C264.976 611.281 263.133 611.977 260.758 611.977Z" fill="white"/>
<path d="M360.787 591.001C362.917 591.001 364.679 591.696 366.071 593.086C367.464 594.476 368.16 596.275 368.16 598.483V674.291C368.16 676.417 367.464 678.216 366.071 679.688C364.679 681.078 362.917 681.773 360.787 681.773C358.658 681.773 356.896 681.078 355.504 679.688C354.193 678.298 353.497 676.54 353.415 674.413C351.367 676.785 348.581 678.829 345.059 680.547C341.618 682.182 337.973 683 334.123 683C328.47 683 323.35 681.569 318.763 678.707C314.175 675.763 310.53 671.715 307.826 666.563C305.205 661.411 303.894 655.564 303.894 649.022C303.894 642.479 305.205 636.632 307.826 631.48C310.448 626.247 314.011 622.199 318.517 619.336C323.104 616.393 328.142 614.921 333.631 614.921C337.563 614.921 341.25 615.657 344.69 617.129C348.131 618.519 351.039 620.318 353.415 622.526V598.483C353.415 596.357 354.111 594.599 355.504 593.209C356.896 591.737 358.658 591.001 360.787 591.001ZM335.966 669.507C341.291 669.507 345.632 667.585 348.991 663.741C352.35 659.816 354.029 654.91 354.029 649.022C354.029 643.134 352.35 638.227 348.991 634.302C345.632 630.376 341.291 628.414 335.966 628.414C330.723 628.414 326.422 630.376 323.063 634.302C319.705 638.227 318.025 643.134 318.025 649.022C318.025 654.91 319.664 659.816 322.94 663.741C326.299 667.585 330.641 669.507 335.966 669.507Z" fill="white"/>
<path d="M443.123 647.427C443.041 649.39 442.262 650.984 440.788 652.211C439.313 653.438 437.593 654.051 435.627 654.051H395.077C396.06 658.876 398.312 662.678 401.835 665.459C405.358 668.157 409.331 669.507 413.754 669.507C417.113 669.507 419.735 669.221 421.619 668.648C423.503 667.994 424.977 667.34 426.042 666.685C427.189 665.949 427.967 665.459 428.377 665.213C429.852 664.478 431.244 664.109 432.555 664.109C434.275 664.109 435.75 664.723 436.979 665.949C438.207 667.176 438.822 668.607 438.822 670.243C438.822 672.451 437.675 674.454 435.381 676.253C433.087 678.134 430.015 679.729 426.165 681.037C422.315 682.346 418.424 683 414.492 683C407.61 683 401.589 681.569 396.428 678.707C391.349 675.845 387.417 671.919 384.632 666.931C381.847 661.861 380.454 656.177 380.454 649.88C380.454 642.847 381.929 636.673 384.878 631.358C387.827 626.042 391.718 621.994 396.551 619.214C401.384 616.352 406.545 614.921 412.034 614.921C417.441 614.921 422.52 616.393 427.271 619.336C432.104 622.28 435.955 626.247 438.822 631.235C441.689 636.223 443.123 641.621 443.123 647.427ZM412.034 628.414C402.531 628.414 396.92 632.871 395.2 641.784H427.394V640.926C427.066 637.491 425.387 634.547 422.356 632.094C419.325 629.64 415.884 628.414 412.034 628.414Z" fill="white"/>
<path d="M508.259 634.179C512.6 635.896 516.123 638.513 518.826 642.03C521.611 645.546 523.004 650.085 523.004 655.646C523.004 665.377 520.219 672.165 514.648 676.008C509.078 679.852 502.442 681.773 494.742 681.773H464.145C462.015 681.773 460.213 681.078 458.738 679.688C457.345 678.216 456.649 676.417 456.649 674.291V603.39C456.649 601.264 457.345 599.506 458.738 598.115C460.213 596.643 462.015 595.907 464.145 595.907H495.11C510.675 595.907 518.458 603.186 518.458 617.742C518.458 621.422 517.556 624.693 515.754 627.555C514.034 630.336 511.535 632.544 508.259 634.179ZM502.483 620.441C502.483 617.088 501.623 614.593 499.903 612.958C498.264 611.241 495.93 610.382 492.899 610.382H472.623V629.518H493.267C495.725 629.518 497.855 628.7 499.657 627.064C501.541 625.429 502.483 623.221 502.483 620.441ZM494.742 667.667C498.592 667.667 501.582 666.645 503.712 664.6C505.924 662.556 507.03 659.571 507.03 655.646C507.03 650.821 505.76 647.672 503.22 646.2C500.681 644.728 497.568 643.992 493.882 643.992H472.623V667.667H494.742Z" fill="white"/>
<path d="M584.723 616.147C586.853 616.147 588.615 616.883 590.007 618.355C591.4 619.745 592.096 621.504 592.096 623.63V654.787C592.096 663.619 589.639 670.529 584.723 675.517C579.89 680.506 572.968 683 563.957 683C554.945 683 548.023 680.506 543.19 675.517C538.357 670.529 535.94 663.619 535.94 654.787V623.63C535.94 621.504 536.636 619.745 538.029 618.355C539.422 616.883 541.183 616.147 543.313 616.147C545.443 616.147 547.204 616.883 548.597 618.355C549.989 619.745 550.686 621.504 550.686 623.63V654.787C550.686 659.775 551.792 663.496 554.003 665.949C556.215 668.321 559.533 669.507 563.957 669.507C568.462 669.507 571.821 668.321 574.033 665.949C576.245 663.496 577.351 659.775 577.351 654.787V623.63C577.351 621.504 578.047 619.745 579.439 618.355C580.832 616.883 582.593 616.147 584.723 616.147Z" fill="white"/>
<path d="M604.251 671.592C603.513 670.611 603.145 669.384 603.145 667.912C603.145 665.786 604.21 663.987 606.34 662.515C607.486 661.779 608.674 661.411 609.903 661.411C611.623 661.411 613.262 662.188 614.818 663.741C617.276 666.277 619.815 668.157 622.437 669.384C625.14 670.611 628.376 671.224 632.144 671.224C638.534 670.979 641.729 668.566 641.729 663.987C641.729 661.615 640.623 659.816 638.411 658.59C636.281 657.363 632.923 656.136 628.335 654.91C623.584 653.601 619.693 652.293 616.661 650.984C613.712 649.676 611.132 647.713 608.92 645.096C606.79 642.398 605.725 638.799 605.725 634.302C605.725 630.376 606.831 626.983 609.043 624.12C611.337 621.177 614.286 618.928 617.89 617.374C621.577 615.738 625.468 614.921 629.564 614.921C633.742 614.921 637.92 615.697 642.098 617.251C646.276 618.805 649.552 621.095 651.928 624.12C652.993 625.429 653.525 626.901 653.525 628.536C653.525 630.417 652.747 631.971 651.191 633.198C650.044 634.097 648.733 634.547 647.259 634.547C645.456 634.547 643.982 633.975 642.835 632.83C641.36 631.031 639.435 629.6 637.06 628.536C634.766 627.473 632.144 626.942 629.195 626.942C622.969 626.942 619.856 629.191 619.856 633.688C619.856 635.488 620.43 636.959 621.577 638.104C622.724 639.167 624.157 640.026 625.877 640.68C627.68 641.253 630.178 641.989 633.373 642.888C637.797 644.115 641.483 645.383 644.432 646.691C647.381 647.999 649.88 650.003 651.928 652.702C653.976 655.4 655 658.958 655 663.374C655 667.381 653.812 670.897 651.436 673.923C649.061 676.867 645.989 679.116 642.221 680.669C638.534 682.223 634.725 683 630.793 683C625.386 683 620.348 682.1 615.678 680.301C611.009 678.502 607.2 675.599 604.251 671.592Z" fill="white"/>
</svg>
