<svg width="1004" height="1004" viewBox="0 0 1004 1004" fill="none" xmlns="http://www.w3.org/2000/svg">
<path d="M902 400C902 620.914 722.914 800 502 800C281.086 800 102 620.914 102 400C102 179.086 281.086 0 502 0C722.914 0 902 179.086 902 400Z" fill="#7000FF"/>
<path d="M502 1004L379.024 772.25H624.976L502 1004Z" fill="#7000FF"/>
<path d="M361.467 483.333C354.927 483.333 348.534 485.288 343.096 488.951C337.658 492.614 333.42 497.82 330.917 503.911C328.414 510.001 327.759 516.704 329.035 523.17C330.311 529.636 333.46 535.575 338.085 540.237C342.709 544.899 348.601 548.073 355.016 549.36C361.43 550.646 368.079 549.986 374.121 547.463C380.163 544.94 385.327 540.667 388.961 535.186C392.594 529.704 394.533 523.259 394.533 516.667C394.523 507.829 391.036 499.356 384.837 493.107C378.638 486.858 370.233 483.343 361.467 483.333ZM361.467 533.333C358.197 533.333 355 532.356 352.281 530.525C349.562 528.693 347.443 526.09 346.192 523.045C344.94 519.999 344.613 516.648 345.251 513.415C345.889 510.182 347.464 507.212 349.776 504.882C352.088 502.551 355.034 500.963 358.241 500.32C361.448 499.677 364.773 500.007 367.794 501.269C370.815 502.53 373.397 504.666 375.214 507.407C377.03 510.148 378 513.37 378 516.667C377.995 521.085 376.251 525.322 373.152 528.446C370.052 531.571 365.85 533.328 361.467 533.333Z" fill="white"/>
<path d="M642.533 483.333C635.993 483.333 629.6 485.288 624.162 488.951C618.725 492.614 614.486 497.82 611.984 503.911C609.481 510.001 608.826 516.704 610.102 523.17C611.378 529.636 614.527 535.575 619.152 540.237C623.776 544.899 629.668 548.073 636.082 549.36C642.497 550.646 649.145 549.986 655.187 547.463C661.23 544.94 666.394 540.667 670.027 535.186C673.661 529.704 675.6 523.259 675.6 516.667C675.59 507.829 672.103 499.356 665.904 493.107C659.705 486.858 651.3 483.343 642.533 483.333ZM642.533 533.333C639.263 533.333 636.067 532.356 633.348 530.525C630.629 528.693 628.51 526.09 627.258 523.045C626.007 519.999 625.68 516.648 626.318 513.415C626.956 510.182 628.53 507.212 630.842 504.882C633.155 502.551 636.101 500.963 639.308 500.32C642.515 499.677 645.839 500.007 648.86 501.269C651.881 502.53 654.464 504.666 656.28 507.407C658.097 510.148 659.067 513.37 659.067 516.667C659.061 521.085 657.318 525.322 654.218 528.446C651.119 531.571 646.917 533.328 642.533 533.333Z" fill="white"/>
<path d="M733.467 300H708.667V208.333C708.649 192.868 702.547 178.04 691.699 167.105C680.851 156.169 666.142 150.017 650.8 150H353.2C337.858 150.017 323.149 156.169 312.301 167.105C301.453 178.04 295.351 192.868 295.333 208.333V241.667H493.733V441.667H311.867V241.667H295.333V300H270.533C266.15 300.005 261.948 301.763 258.848 304.887C255.749 308.012 254.005 312.248 254 316.667V400C254.005 404.419 255.749 408.655 258.848 411.779C261.948 414.904 266.15 416.661 270.533 416.667H295.333V558.333C295.34 563.501 296.933 568.54 299.893 572.76C302.853 576.979 307.035 580.172 311.867 581.9V633.333C311.872 637.752 313.615 641.988 316.715 645.113C319.814 648.237 324.017 649.995 328.4 650H378C382.383 649.995 386.586 648.237 389.685 645.113C392.785 641.988 394.528 637.752 394.533 633.333V583.333H675.6V630.333C675.6 631.99 674.257 633.333 672.6 633.333H629C627.343 633.333 626 631.99 626 630.333V583.333H609.467V633.333C609.472 637.752 611.215 641.988 614.315 645.113C617.414 648.237 621.617 649.995 626 650H675.6C679.983 649.995 684.186 648.237 687.285 645.113C690.385 641.988 692.128 637.752 692.133 633.333V581.9C696.965 580.172 701.147 576.979 704.107 572.76C707.068 568.54 708.66 563.501 708.667 558.333V416.667H733.467C737.85 416.661 742.052 414.904 745.152 411.779C748.251 408.655 749.995 404.419 750 400V316.667C749.995 312.248 748.251 308.012 745.152 304.887C742.052 301.763 737.85 300.005 733.467 300ZM311.867 208.333C311.879 197.286 316.238 186.696 323.987 178.884C331.735 171.073 342.242 166.679 353.2 166.667H650.8C661.759 166.679 672.265 171.073 680.014 178.884C687.762 186.696 692.121 197.286 692.133 208.333V225H311.867V208.333ZM510.267 241.667H692.133V441.667H510.267V241.667ZM273.533 400C271.876 400 270.533 398.657 270.533 397V319.667C270.533 318.01 271.876 316.667 273.533 316.667H295.333V400H273.533ZM378 630.333C378 631.99 376.657 633.333 375 633.333H331.4C329.743 633.333 328.4 631.99 328.4 630.333V583.333H378V630.333ZM683.867 566.667H320.133C317.942 566.664 315.84 565.785 314.291 564.223C312.741 562.661 311.869 560.543 311.867 558.333V458.333H692.133V558.333C692.131 560.543 691.259 562.661 689.709 564.223C688.16 565.785 686.058 566.664 683.867 566.667ZM733.467 400H708.667V316.667H730.467C732.124 316.667 733.467 318.01 733.467 319.666L733.477 400H733.467Z" fill="white"/>
<path d="M493.734 191.667C493.734 187.101 497.435 183.333 502 183.333C506.566 183.333 510.267 187.101 510.267 191.667C510.267 196.232 506.566 200 502 200C497.435 200 493.734 196.232 493.734 191.667Z" fill="white"/>
<path d="M526.8 191.667C526.8 187.101 530.501 183.333 535.067 183.333C539.632 183.333 543.333 187.101 543.333 191.667C543.333 196.232 539.632 200 535.067 200C530.501 200 526.8 196.232 526.8 191.667Z" fill="white"/>
<path d="M460.667 191.667C460.667 187.101 464.368 183.333 468.933 183.333C473.499 183.333 477.2 187.101 477.2 191.667C477.2 196.232 473.499 200 468.933 200C464.368 200 460.667 196.232 460.667 191.667Z" fill="white"/>
<path d="M344.933 191.667C344.933 187.101 348.634 183.333 353.2 183.333C357.766 183.333 361.467 187.101 361.467 191.667C361.467 196.232 357.766 200 353.2 200C348.634 200 344.933 196.232 344.933 191.667Z" fill="white"/>
<path d="M642.533 191.667C642.533 187.101 646.234 183.333 650.8 183.333C655.366 183.333 659.067 187.101 659.067 191.667C659.067 196.232 655.366 200 650.8 200C646.234 200 642.533 196.232 642.533 191.667Z" fill="white"/>
</svg>
